<?xml version="1.0" encoding="UTF-8"?>
<svg viewBox="0 0 64 64" xmlns="http://www.w3.org/2000/svg" xmlns:xlink="http://www.w3.org/1999/xlink">
 <defs>
  <linearGradient id="a">
   <stop stop-color="#f8e967" offset="0"/>
   <stop stop-color="#b87800" offset="1"/>
  </linearGradient>
  <linearGradient id="c">
   <stop stop-color="#b3b3b3" offset="0"/>
   <stop stop-color="#fff" offset="1"/>
  </linearGradient>
  <linearGradient id="b">
   <stop stop-color="#a3a4a2" offset="0"/>
   <stop offset="1"/>
  </linearGradient>
  <linearGradient id="d" x1="39.123" x2="27.317" y1="26.959" y2="18.272" gradientUnits="userSpaceOnUse" xlink:href="#a"/>
  <linearGradient id="e" x1="647.82" x2="649.07" y1="274.46" y2="284.62" gradientTransform="scale(.60858 1.6432)" gradientUnits="userSpaceOnUse" xlink:href="#c"/>
  <linearGradient id="f" x1="545.51" x2="546.76" y1="324.09" y2="334.25" gradientTransform="scale(.7192 1.3904)" gradientUnits="userSpaceOnUse" xlink:href="#c"/>
  <linearGradient id="p" x1="927.38" x2="875.89" y1="277.52" y2="296.43" gradientTransform="matrix(.15305 0 0 .30292 -101.15 -32.886)" gradientUnits="userSpaceOnUse" xlink:href="#a"/>
  <linearGradient id="o" x1="915.3" x2="864.29" y1="284.46" y2="302.78" gradientTransform="matrix(.1625 0 0 .2853 -101.15 -32.886)" gradientUnits="userSpaceOnUse" xlink:href="#a"/>
  <linearGradient id="n" x1="378" x2="382.25" y1="667.56" y2="682.91" gradientTransform="matrix(.35283 0 0 .1314 -101.15 -32.886)" gradientUnits="userSpaceOnUse" xlink:href="#a"/>
  <linearGradient id="m" x1="356.38" x2="354.9" y1="679.35" y2="703.79" gradientTransform="matrix(.35204 0 0 .13169 -101.15 -32.886)" gradientUnits="userSpaceOnUse" xlink:href="#a"/>
  <linearGradient id="l" x1="828.13" x2="852.16" y1="228.98" y2="292.34" gradientTransform="matrix(.15324 0 0 .30255 -101.15 -32.886)" gradientUnits="userSpaceOnUse" xlink:href="#c"/>
  <linearGradient id="k" x1="33.826" x2="16.577" y1="44.644" y2="34.07" gradientTransform="scale(.80097 1.2485)" gradientUnits="userSpaceOnUse" xlink:href="#b"/>
  <linearGradient id="j" x1="35.359" x2="25.398" y1="1.7941" y2="5.1983" gradientTransform="scale(.94308 1.0604)" gradientUnits="userSpaceOnUse" xlink:href="#b"/>
  <linearGradient id="i" x1="40.309" x2="13.742" y1="34.181" y2="37.253" gradientTransform="scale(.89067 1.1228)" gradientUnits="userSpaceOnUse" xlink:href="#b"/>
  <linearGradient id="h" x1="467.31" x2="455.74" y1="293.4" y2="293.77" gradientTransform="scale(.647,1.5456)" gradientUnits="userSpaceOnUse" xlink:href="#b"/>
  <linearGradient id="g" x1="381.92" x2="369.91" y1="327.04" y2="323.63" gradientTransform="scale(.71429,1.4)" gradientUnits="userSpaceOnUse" xlink:href="#b"/>
 </defs>
 <path transform="matrix(.21532 0 0 .21532 -29.796 -80.594)" d="m351.25 644.86a92.5 25 0 1 1 -185 0 92.5 25 0 1 1 185 0z" fill="#bdbdbd" fill-rule="evenodd"/>
 <path d="m19.088 28.718c-1.7911 0.90284-7.2254 6.6938-8.1222 8.7339-2.0238 4.604-1.9777 10.076 0.15124 14.565 2.7442 5.7857 8.0886 8.4021 14.399 7.9207 8.9742-0.68464 9.9691-9.7912 7.8139-16.799-1.0307-3.3517-3.8955-5.425-5.0539-8.691-0.57278-1.6148-0.96701-3.172-2.0532-4.5269" fill="url(#i)" fill-rule="evenodd"/>
 <path d="m11.959 24.019c-1.2822-2.6038-1.4747-4.0622-1.5902-7.3181-0.18328-5.1661-0.1724-6.8907 3.3745-11.233 3.0559-3.7415 7.0738-5.0812 11.795-4.2123 8.9467 1.6466 12.928 7.5223 11.9 16.505-0.45798 4.003-5.4566 12.522-9.7161 13.2-4.5469 0.72443-10.47 2.1556-13.776-3.3413 1.8199 1.628-0.57108-0.20317-1.9872-3.6z" fill="url(#j)"/>
 <path transform="matrix(.21462 -.017249 .017249 .21462 -61.288 -77.98)" d="m391.56 467.45a9.9437 19.224 0 1 1 -19.887 0 9.9437 19.224 0 1 1 19.887 0z" fill="url(#f)" fill-rule="evenodd"/>
 <path transform="matrix(.2149 .013361 -.013361 .2149 -47.062 -89.993)" d="m418.08 466.57a6.6291 17.899 0 1 1 -13.258 0 6.6291 17.899 0 1 1 13.258 0z" fill="url(#e)" fill-rule="evenodd"/>
 <path transform="matrix(.21102 -.042773 .042773 .21102 -47.16 -67.766)" d="m273.12 457.29a5.5243 10.828 0 1 1 -11.049 0 5.5243 10.828 0 1 1 11.049 0z" fill="url(#g)" fill-rule="evenodd"/>
 <path transform="matrix(.21469 .016448 -.016448 .21469 -21.361 -85.122)" d="m301.85 455.08a3.9775 9.5017 0 1 1 -7.955 0 3.9775 9.5017 0 1 1 7.955 0z" fill="url(#h)" fill-rule="evenodd"/>
 <path d="m28.542 22.205c0.871-0.40017 1.1501-3.1363 2.4561-3.8611 1.3096-0.72682 2.2108-0.56727 3.4487 0.34136 1.3701 1.0057 1.5516 2.7289 2.4574 4.0387 0.8196 1.185 1.6226 2.4661 2.3442 3.6982 0.16792 0.28672 0.64395 0.89537 0.62271 1.1974-0.01587 0.22628-2.639 0.03374-2.9805-0.0245-1.035-0.17645-1.9786-0.28293-2.9869-0.5834-1.5734-0.46889-3.5832-0.64048-5.0238-1.1652-1.7542-0.63893-2.1446-1.449-1.7593-3.0872 0.10083-0.42867 0.83314-0.55172 1.4214-0.55435z" fill="url(#d)" fill-rule="evenodd"/>
 <path d="m32.72337,19.42739c-.21084.42165-.68427,1.13721-.18827,1.55579 .58566.49424.89621-.77365.42198-1.17011-.06679-.05583-.04877-.09941-.2337-.38567z" fill="#7f5d29" fill-rule="evenodd"/>
 <path d="m34.53135,19.42739c0,.44346.8904,2.18834.85601.81011-.00691-.2761-.50291-.64494-.85601-.81011z" fill="#7f5d29" fill-rule="evenodd"/>
 <path d="m21.182 41.271c1.3533 2.3767 0.70283 5.7386 0.26495 8.206-0.28837 1.6248-1.769 7.9095-3.8719 7.788-4.6822-0.27044-4.4775-0.95303-2.7607-4.9172 0.2621-0.60523 0.21346-0.50692 0.42469-1.1429" fill-rule="evenodd"/>
 <path d="m13.651 40.529c-0.95189 2.8362-0.96421 6.7064-1.894 9.8796-0.73892 2.5222-1.5921 4.9838-2.6778 7.3947-0.32715 0.72648 3.7164 0.31212 3.9636 0.29401 4.5147-0.32978 8.0768-9.8365 8.6442-13.195 0.37915-2.2438-0.00351-4.3862 0.08953-6.6194" fill="url(#k)" fill-rule="evenodd"/>
 <path d="m24.714 32.137c-0.79878 0.68966-0.21659 2.8506-0.41956 3.568-0.22776 0.80481 0.24044 2.7992 0.23646 4.1651-0.00579 1.9932-1.6503 3.8804-1.947 5.8962-0.48216 3.2765-1.558 8.5764 2.2623 10.512 2.1553 1.0923 6.612 0.06001 8.048-1.4528 2.2045-2.3223 2.065-8.2614 1.5024-11.163-0.4406-2.2732-1.9593-4.7704-3.6585-6.388-1.007-0.9585-2.6668-4.8614-3.4927-5.3221-0.58635-0.32709-1.8516-0.41907-2.5315 0.1844z" fill="url(#l)" fill-rule="evenodd"/>
 <path d="m28.714 24.008c0.28605 0.5721 2.0121 2.5745 4.1758 2.6916" fill="none" stroke="#937700" stroke-width=".62"/>
 <path d="m23.458 56.674c-0.95275 0-1.5416 2.5127-0.92616 2.8845 2.0863 1.2608 6.8393 1.5803 9.2989 1.7382 2.3712 0.15225 4.1243 2.258 4.6197-1.8173 0.0332-0.27319-1.8262-0.5131-2.0691-0.53786-2.1252-0.21631-4.1686-0.92638-6.3046-1.1758-1.5113-0.17647-2.9312-0.62513-4.6188-1.0918z" fill="url(#m)" fill-rule="evenodd"/>
 <path d="m32.545 55.082c-0.62663 1.6222-1.8989 2.0198 2.3782 2.3808 1.5947 0.15451 3.0453 0.62612 4.595 0.90349 2.5782 0.46149 1.8006-0.52188 1.8006-2.7103 0-0.75307-4.3642-0.73244-5.0658-0.73274-1.1699-5.8e-4 -2.2812-0.04771-3.708 0.1588z" fill="url(#n)" fill-rule="evenodd"/>
 <path d="m41.789 59.539c-3.1451 0-3.5055-9.1157-3.2401-11.29 0.23213-1.9022 1.2638-3.1163 2.6048-0.98809 0.09961 0.15808 1.3897-0.74039 1.5513-0.80907 1.3575-0.57707 1.8584 0.29789 1.9064 1.5215 0.0219 0.55846 1.2185-1.4939 1.6275-0.38714 0.22675 0.61365-1.8493 3.4618-2.1554 4.7874-0.34545 1.4959-0.59683 6.0902-1.4607 6.9688-0.24912 0.25338-0.57756 0.75488-0.83388 0.19712z" fill="url(#o)" fill-rule="evenodd"/>
 <path d="m35.047 62.881c-0.94306 0.72669-1.8538-3.3908-2.0307-4.3989-0.27946-1.5928-0.9405-7.8182-0.62295-9.0793 0.58585-2.3262 1.7019 0.04395 2.8621-1.1839 0.38092-0.40316 1.0899-1.0681 1.5768-0.71704 0.41588 0.29987-0.23375 0.91382 1.1017 0.90323 1.7173-0.01365 2.1863 0.38477 2.2527 3.1094 0.06952 2.8564-1.4653 5.0818-1.8886 7.8028-0.48261 3.102-1.145 4.0437-3.251 3.5637z" fill="url(#p)" fill-rule="evenodd"/>
 <path d="m27.369 7.9938c-1.6762 0-3.0107 3.1264-0.1741 1.647 1.7818-0.92926 2.5132 1.5807 3.1202-0.02173 0.65073-1.7181-2.3487-1.6252-2.9461-1.6252z" fill="#535353" fill-rule="evenodd"/>
 <path d="m34.23179,8.66667c-1.53279,0-2.78201,2.26131-.4237,1.61125 .52124-.14366 1.7904-.61518 2.30883-.37062 .40802.19247.87483.74045.92558.00013 .0802-1.17009-1.89569-1.10119-2.81071-1.24076z" fill="#5f5f5f" fill-rule="evenodd"/>
 <path d="m16.737 4.3604c-0.96636 0-3.8787 4.1141-1.9872 4.4599 1.3403 0.24499 3.3296-2.1987 3.4356-3.4074s-0.75507-1.6685-1.4484-1.0525z" fill="#3c3c3c" fill-rule="evenodd"/>
 <path d="m13.508 10.147c-0.29423 0.58846-1.5959 3.1278-0.06976 3.131 1.4695 0.00306 1.6844-2.994 0.06976-3.131z" fill="#3c3c3c" fill-rule="evenodd"/>
</svg>
