<?xml version="1.0" encoding="UTF-8"?>
<svg viewBox="0 0 744.09447 1052.362179" xmlns="http://www.w3.org/2000/svg" xmlns:xlink="http://www.w3.org/1999/xlink">
 <defs>
  <linearGradient id="a">
   <stop stop-color="#ffff9b" offset="0"/>
   <stop stop-color="#f99e1b" stop-opacity="0" offset="1"/>
  </linearGradient>
  <linearGradient id="h">
   <stop stop-color="#eb7a1b" offset="0"/>
   <stop stop-color="#ef871b" stop-opacity="0" offset="1"/>
  </linearGradient>
  <linearGradient id="i">
   <stop stop-color="#f28b00" offset="0"/>
   <stop stop-color="#ffd700" stop-opacity="0" offset="1"/>
  </linearGradient>
  <linearGradient id="p" x1="489.42" x2="678.81" y1="584.64" y2="537.12" gradientUnits="userSpaceOnUse">
   <stop stop-color="#fff" offset="0"/>
   <stop stop-color="#2c0053" stop-opacity=".498" offset=".749"/>
   <stop stop-color="#2c0000" stop-opacity="0" offset="1"/>
  </linearGradient>
  <linearGradient id="o" x1="180.51" x2="603.43" y1="424" y2="477.04" gradientUnits="userSpaceOnUse">
   <stop stop-color="#fff" offset="0"/>
   <stop stop-color="#2c0053" offset=".252"/>
   <stop stop-color="#2c0000" stop-opacity="0" offset="1"/>
  </linearGradient>
  <linearGradient id="n" x1="690.14" x2="297.29" y1="913.24" y2="470.9" gradientUnits="userSpaceOnUse">
   <stop stop-color="#fff" offset="0"/>
   <stop stop-color="#2c0053" stop-opacity=".498" offset=".16"/>
   <stop stop-color="#2c0000" stop-opacity="0" offset="1"/>
  </linearGradient>
  <linearGradient id="k" x1="379.77" x2="381.34" y1="611.89" y2="611.26" gradientUnits="userSpaceOnUse">
   <stop stop-color="#9a5900" offset="0"/>
   <stop stop-color="#cd7300" stop-opacity="0" offset="1"/>
  </linearGradient>
  <linearGradient id="j" x1="20.874" x2="274.61" y1="429.61" y2="565.4" gradientUnits="userSpaceOnUse">
   <stop stop-color="#fff" offset="0"/>
   <stop stop-color="#2c0053" stop-opacity=".498" offset=".799"/>
   <stop stop-color="#2c0000" stop-opacity="0" offset="1"/>
  </linearGradient>
  <linearGradient id="g" x1="365.11" x2="358.02" y1="674.24" y2="674.38" gradientUnits="userSpaceOnUse" xlink:href="#i"/>
  <linearGradient id="f" x1="378.74" x2="356.37" y1="675.18" y2="676.42" gradientUnits="userSpaceOnUse" xlink:href="#i"/>
  <linearGradient id="e" x1="374.98" x2="364.01" y1="671.6" y2="680.08" gradientUnits="userSpaceOnUse" xlink:href="#h"/>
  <linearGradient id="d" x1="361.13" x2="364.4" y1="675.95" y2="678.65" gradientUnits="userSpaceOnUse" xlink:href="#a"/>
  <linearGradient id="c" x1="368.83" x2="372.41" y1="676.3" y2="678.47" gradientUnits="userSpaceOnUse" xlink:href="#a"/>
  <linearGradient id="b" x1="361.35" x2="364.62" y1="672.54" y2="675.24" gradientUnits="userSpaceOnUse" xlink:href="#a"/>
  <linearGradient id="m" x1="382.85" x2="392.78" y1="608.91" y2="607.45" gradientUnits="userSpaceOnUse" xlink:href="#h"/>
  <linearGradient id="l" x1="389.58" x2="386.75" y1="606.72" y2="609.28" gradientUnits="userSpaceOnUse" xlink:href="#a"/>
 </defs>
 <path d="m312.26 574.32h119.57v143.57h-119.57z" fill="#fff" stroke="#000" stroke-width=".4297"/>
 <g transform="translate(-29.053 9.8377)">
  <g transform="translate(-8,-8)">
   <path d="m611.32 471.95c-45.17-60.099-161.26-143.56-143.89-81.455 18.804 67.257 94.451 245.95 141.69 260.48s52.509 68.268 60.742 51.48c27.608-56.295-13.367-170.4-58.537-230.5z" fill="#2c0000"/>
   <path d="m611.32 471.95c-45.17-60.099-161.26-143.56-143.89-81.455 18.804 67.257 94.451 245.95 141.69 260.48s52.509 68.268 60.742 51.48c27.608-56.295-13.367-170.4-58.537-230.5z" fill="url(#p)"/>
  </g>
  <path d="m379.98 72.993c-75.826-0.8742-120.66 33.289-135.33 115.71-8.6224 48.465-1.5343 140.81 0.609 184.04 4.3924 15.737 7.2104 39.574-6.2136 60.297-40.86 78.209-44.248 91.01-53.076 145.51s-9.1754 140.76 15.707 194.85c60.26 131 153.03 110.95 277.31 98.817 58.701-5.7332 60.271-32.277 71.597-41.608 24.32-20.035 58.391-90.788 52.08-205.56-6.4203-116.77-96.771-223.77-135.63-273.29 1.7581 5.7326 4.4653-17.157 4.4286-17.418 0.1027-2.6657 3.536-12.591 20.25-114.5 22.634-102.27-47.919-142.5-111.74-146.84z"/>
  <path d="m379.98 72.993c-75.826-0.8742-120.66 33.289-135.33 115.71-8.6224 48.465-1.5343 140.81 0.609 184.04 4.3924 15.737 7.2104 39.574-6.2136 60.297-40.86 78.209-44.248 91.01-53.076 145.51s-9.1754 140.76 15.707 194.85c60.26 131 153.03 110.95 277.31 98.817 58.701-5.7332 60.271-32.277 71.597-41.608 24.32-20.035 58.391-90.788 52.08-205.56-6.4203-116.77-96.771-223.77-135.63-273.29 1.7581 5.7326 4.4653-17.157 4.4286-17.418 0.1027-2.6657 3.536-12.591 20.25-114.5 22.634-102.27-47.919-142.5-111.74-146.84z" fill="url(#o)" opacity=".35"/>
  <path transform="matrix(6.8651 -.12952 .12952 6.8651 -1943.4 -3954.9)" d="m342.82 607.37c0 3.0826-2.499 5.5816-5.5816 5.5816s-5.5816-2.499-5.5816-5.5816 2.499-5.5816 5.5816-5.5816 5.5816 2.499 5.5816 5.5816z" fill="#fff" stroke="#000" stroke-width=".2"/>
  <path transform="matrix(10.208 -.19258 .19258 10.208 -3203.9 -5959.6)" d="m342.82 607.37c0 3.0826-2.499 5.5816-5.5816 5.5816s-5.5816-2.499-5.5816-5.5816 2.499-5.5816 5.5816-5.5816 5.5816 2.499 5.5816 5.5816z" fill="#fff" stroke="#000" stroke-width=".2"/>
  <g transform="matrix(10.115 1.3858 -1.3858 10.115 -2563.2 -6449.3)">
   <path d="m370.44 672.39c-0.0932 0.4128-5.1284 2.0501-7.6388 3.4273-6.6683 3.6583-3.1628-1.4722-1.3152-2.7622 3.2763-2.2875 12.445-5.1688 12.305-3.3207-0.1252 1.6569-2.9857-0.0207-3.3514 2.6556z" fill="#ffd700" stroke="#000" stroke-width=".2871"/>
   <path d="m370.44 672.39c-0.0932 0.4128-5.1284 2.0501-7.6388 3.4273-6.6683 3.6583-3.1628-1.4722-1.3152-2.7622 3.2763-2.2875 12.445-5.1688 12.305-3.3207-0.1252 1.6569-2.9857-0.0207-3.3514 2.6556z" fill="url(#g)"/>
   <path d="m370.44 672.39c-0.0932 0.4128-5.1284 2.0501-7.6388 3.4273-6.6683 3.6583-3.1628-1.4722-1.3152-2.7622 3.2763-2.2875 12.445-5.1688 12.305-3.3207-0.1252 1.6569-2.9857-0.0207-3.3514 2.6556z" fill="none" stroke="#000" stroke-width=".2871"/>
   <path d="m383.92 673.17c-1.5453 4.7211-10.126 3.2916-12.96 7.3751-1.1202 1.6142-3.6543 1.6818-3.9384 0.0653-0.5574-3.1608-5.6396 1.7631-7.487 0.7643-3.3227-1.7964 3.2346-8.1363 12.06-12.201 4.214-1.9406 5.0538 1.4072 10.156 0.7782 2.106-0.2596 2.5604 1.8963 2.1695 3.2176z" fill="#ffd700" stroke="#000" stroke-width=".2871"/>
   <path d="m383.92 673.17c-1.5453 4.7211-10.126 3.2916-12.96 7.3751-1.1202 1.6142-3.6543 1.6818-3.9384 0.0653-0.5574-3.1608-5.6396 1.7631-7.487 0.7643-3.3227-1.7964 3.2346-8.1363 12.06-12.201 4.214-1.9406 5.0538 1.4072 10.156 0.7782 2.106-0.2596 2.5604 1.8963 2.1695 3.2176z" fill="url(#f)"/>
   <path d="m383.92 673.17c-1.5453 4.7211-10.126 3.2916-12.96 7.3751-1.1202 1.6142-3.6543 1.6818-3.9384 0.0653-0.5574-3.1608-5.6396 1.7631-7.487 0.7643-3.3227-1.7964 3.2346-8.1363 12.06-12.201 4.214-1.9406 5.0538 1.4072 10.156 0.7782 2.106-0.2596 2.5604 1.8963 2.1695 3.2176z" fill="none" stroke="#000" stroke-width=".2871"/>
   <path d="m364.58 679.16c-3e-3 -1.8807 1.9563-2.0821 9.118-6.7235 1.9166-1.2421-1.7404 2.1172-1.9675 2.2304-4.7392 2.3614-3.4014 6.0436-4.9638 4.8356-1.5031-1.1622-2.0518 0.6309-2.1867-0.3424z" fill="url(#e)"/>
   <path d="m359.2149,680.057c-.3423-1.195 1.9969-3.5842 2.7438-4.1736 .459-.3622 3.9218-3.4276 5.6626-3.8476 .504-.1216-2.805,2.1109-4.7578,4.6793-1.0534,1.3854-2.2354,3.9453-2.2354,3.9453s-1.0419.6926-1.4132-.6033z" fill="url(#d)"/>
   <path d="m367.2242,679.88c-.3423-1.195 2.6164-3.9382 3.3633-4.5276 .459-.3622 2.019-1.5249 3.7598-3.0954 .3849-.3473-.858,2.0224-2.8108,4.5908-1.0534,1.3854-.29,3.5807-2.2354,3.9895-.5725.1203-1.7057.3386-2.0769-.9573z" fill="url(#c)"/>
   <path d="m359.3087,676.7408c-.7264-.9005 1.8146-3.1 2.5615-3.6894 .459-.3622 4.5413-2.1443 6.2821-2.5644 .504-.1216-3.1148.2524-5.0676,2.8207-1.0534,1.3854-2.2511,2.7765-2.2511,2.7765s-1.0055,1.3005-1.5249.6564z" fill="url(#b)"/>
  </g>
  <path d="m585.04 624.43c3.6542 56.471-5.7334 126.25-40.917 180.83-31.963 49.59-81.068 35.923-88.081 36.532-33.21 2.8815-84.87 12.839-134.86-40.647-18.269-19.548-43.126-50.141-51.318-118.82-13.437-112.65 54.827-283.73 126.04-290.41 23.427-2.1992 60.018-17.654 123.08 61.266 27.949 34.979 62.402 114.78 66.056 171.25z" fill="#fff"/>
  <path d="m585.04 624.43c3.6542 56.471-5.7334 126.25-40.917 180.83-31.963 49.59-81.068 35.923-88.081 36.532-33.21 2.8815-84.87 12.839-134.86-40.647-18.269-19.548-43.126-50.141-51.318-118.82-13.437-112.65 54.827-283.73 126.04-290.41 23.427-2.1992 60.018-17.654 123.08 61.266 27.949 34.979 62.402 114.78 66.056 171.25z" fill="url(#n)" opacity=".714"/>
  <g transform="matrix(-10.124 1.3221 1.3221 10.124 3443.7 -6447.3)">
   <path d="m370.44 672.39c-0.0932 0.4128-5.1284 2.0501-7.6388 3.4273-6.6683 3.6583-3.1628-1.4722-1.3152-2.7622 3.2763-2.2875 12.445-5.1688 12.305-3.3207-0.1252 1.6569-2.9857-0.0207-3.3514 2.6556z" fill="#ffd700" stroke="#000" stroke-width=".2871"/>
   <path d="m370.44 672.39c-0.0932 0.4128-5.1284 2.0501-7.6388 3.4273-6.6683 3.6583-3.1628-1.4722-1.3152-2.7622 3.2763-2.2875 12.445-5.1688 12.305-3.3207-0.1252 1.6569-2.9857-0.0207-3.3514 2.6556z" fill="url(#g)"/>
   <path d="m370.44 672.39c-0.0932 0.4128-5.1284 2.0501-7.6388 3.4273-6.6683 3.6583-3.1628-1.4722-1.3152-2.7622 3.2763-2.2875 12.445-5.1688 12.305-3.3207-0.1252 1.6569-2.9857-0.0207-3.3514 2.6556z" fill="none" stroke="#000" stroke-width=".2871"/>
   <path d="m383.92 673.17c-1.5453 4.7211-10.126 3.2916-12.96 7.3751-1.1202 1.6142-3.6543 1.6818-3.9384 0.0653-0.5574-3.1608-5.6396 1.7631-7.487 0.7643-3.3227-1.7964 3.2346-8.1363 12.06-12.201 4.214-1.9406 5.0538 1.4072 10.156 0.7782 2.106-0.2596 2.5604 1.8963 2.1695 3.2176z" fill="#ffd700" stroke="#000" stroke-width=".2871"/>
   <path d="m383.92 673.17c-1.5453 4.7211-10.126 3.2916-12.96 7.3751-1.1202 1.6142-3.6543 1.6818-3.9384 0.0653-0.5574-3.1608-5.6396 1.7631-7.487 0.7643-3.3227-1.7964 3.2346-8.1363 12.06-12.201 4.214-1.9406 5.0538 1.4072 10.156 0.7782 2.106-0.2596 2.5604 1.8963 2.1695 3.2176z" fill="url(#f)"/>
   <path d="m383.92 673.17c-1.5453 4.7211-10.126 3.2916-12.96 7.3751-1.1202 1.6142-3.6543 1.6818-3.9384 0.0653-0.5574-3.1608-5.6396 1.7631-7.487 0.7643-3.3227-1.7964 3.2346-8.1363 12.06-12.201 4.214-1.9406 5.0538 1.4072 10.156 0.7782 2.106-0.2596 2.5604 1.8963 2.1695 3.2176z" fill="none" stroke="#000" stroke-width=".2871"/>
   <path d="m364.58 679.16c-3e-3 -1.8807 1.9563-2.0821 9.118-6.7235 1.9166-1.2421-1.7404 2.1172-1.9675 2.2304-4.7392 2.3614-3.4014 6.0436-4.9638 4.8356-1.5031-1.1622-2.0518 0.6309-2.1867-0.3424z" fill="url(#e)"/>
   <path d="m359.2149,680.057c-.3423-1.195 1.9969-3.5842 2.7438-4.1736 .459-.3622 3.9218-3.4276 5.6626-3.8476 .504-.1216-2.805,2.1109-4.7578,4.6793-1.0534,1.3854-2.2354,3.9453-2.2354,3.9453s-1.0419.6926-1.4132-.6033z" fill="url(#d)"/>
   <path d="m367.2242,679.88c-.3423-1.195 2.6164-3.9382 3.3633-4.5276 .459-.3622 2.019-1.5249 3.7598-3.0954 .3849-.3473-.858,2.0224-2.8108,4.5908-1.0534,1.3854-.29,3.5807-2.2354,3.9895-.5725.1203-1.7057.3386-2.0769-.9573z" fill="url(#c)"/>
   <path d="m359.3087,676.7408c-.7264-.9005 1.8146-3.1 2.5615-3.6894 .459-.3622 4.5413-2.1443 6.2821-2.5644 .504-.1216-3.1148.2524-5.0676,2.8207-1.0534,1.3854-2.2511,2.7765-2.2511,2.7765s-1.0055,1.3005-1.5249.6564z" fill="url(#b)"/>
  </g>
  <g transform="matrix(10.21 0 0 10.21 -3506.5 -5979.2)">
   <path transform="matrix(.69569 -.01312 .01253 .66407 140.1 201.52)" d="m343.7946,612.7904c0,.9829-.7606,1.7796-1.6988,1.7796s-1.6988-.7968-1.6988-1.7796 .7605-1.7797 1.6988-1.7797 1.6988.7968 1.6988,1.7797z" stroke="#000" stroke-width=".2"/>
   <path transform="matrix(.69569 -.01312 .01253 .66407 136.39 201.59)" d="m343.7946,612.7904c0,.9829-.7606,1.7796-1.6988,1.7796s-1.6988-.7968-1.6988-1.7796 .7605-1.7797 1.6988-1.7797 1.6988.7968 1.6988,1.7797z" stroke="#000" stroke-width=".2"/>
   <g transform="matrix(.95738 .16688 -.18948 1.1626 131.47 -162.2)" stroke="#000">
    <path d="m394.9 607.7c-0.2531 4.2379-3.6751 4.7312-7.3888 4.8012s-8.8901 0.2445-8.9466-2.7505 5.6057-6.8905 8.9743-4.6107c2.4559 1.662 6.5146 1.8185 7.3612 2.56z" fill="#ffd700" stroke-width=".1891"/>
    <path d="m394.9 607.7c-0.2531 4.2379-3.6751 4.7312-7.3888 4.8012s-8.8901 0.2445-8.9466-2.7505 5.6057-6.8905 8.9743-4.6107c2.4559 1.662 6.5146 1.8185 7.3612 2.56z" fill="url(#m)" stroke-width=".1891"/>
    <path d="m378.6 610.06c2.0865-3.7881 11.188 5.8377 16.263-2.339" fill="none" stroke-width=".289"/>
    <path d="m394.9 607.7c-0.2531 4.2379-3.6751 4.7312-7.3888 4.8012s-8.8901 0.2445-8.9466-2.7505 5.6057-6.8905 8.9743-4.6107c2.4559 1.662 6.5146 1.8185 7.3612 2.56z" fill="none" stroke-width=".3"/>
   </g>
   <path d="m386.95 605.73c1.2934 1.5744 4.4714 3.199 5.9931 3.8976 2.2113 1.0153-1.256 1.7589-2.9337 1.383-1.5581-0.3491-6.7126-2.8687-8.2982-3.269-2.3642-0.5968 4.0972-3.4012 5.2387-2.0117z" fill="url(#l)"/>
   <path d="m382.36,612.0222c.2883,1.3756.1203,1.7023-1.8043.9227-1.1994-.4858-2.0628-1.3396-2.0348-2.5349 .005-.1922.3457-.8064 1.2942-.8064s2.545,1.5511 2.545,2.4186z" fill="url(#k)"/>
  </g>
  <path d="m124.65 498.59c37.421-84.68 153.39-217.16 149.88-137.82-3.8016 85.913-44.712 321.34-97.321 351.93s-43.947 96.524-58.502 78.684c-48.81-59.825-31.479-208.12 5.9423-292.8z"/>
  <path d="m124.65 498.59c37.421-84.68 153.39-217.16 149.88-137.82-3.8016 85.913-44.712 321.34-97.321 351.93s-43.947 96.524-58.502 78.684c-48.81-59.825-31.479-208.12 5.9423-292.8z" fill="url(#j)"/>
 </g>
</svg>
